<svg xmlns="http://www.w3.org/2000/svg" viewBox="-0.5 -0.5 16 16" fill="none" stroke="#000000" stroke-linecap="round" stroke-linejoin="round" class="feather feather-package" id="Package--Streamline-Feather" height="16" width="16"><desc>Package Streamline Icon: https://streamlinehq.com</desc><path d="m10.3125 5.875 -5.625 -3.2437500000000004" stroke-width="1"></path><path d="M13.125 10V5a1.25 1.25 0 0 0 -0.625 -1.08125l-4.375 -2.5a1.25 1.25 0 0 0 -1.25 0l-4.375 2.5A1.25 1.25 0 0 0 1.875 5v5a1.25 1.25 0 0 0 0.625 1.08125l4.375 2.5a1.25 1.25 0 0 0 1.25 0l4.375 -2.5A1.25 1.25 0 0 0 13.125 10z" stroke-width="1"></path><path d="M2.04375 4.35 7.5 7.50625l5.456250000000001 -3.15625" stroke-width="1"></path><path d="M7.5 13.799999999999999 7.5 7.5" stroke-width="1"></path></svg>