<svg xmlns="http://www.w3.org/2000/svg" viewBox="-0.5 -0.5 16 16" fill="none" stroke="#000000" stroke-linecap="round" stroke-linejoin="round" class="feather feather-settings" id="Settings--Streamline-Feather" height="16" width="16"><desc>Settings Streamline Icon: https://streamlinehq.com</desc><path d="M5.625 7.5a1.875 1.875 0 1 0 3.75 0 1.875 1.875 0 1 0 -3.75 0" stroke-width="1"></path><path d="M12.125 9.375a1.03125 1.03125 0 0 0 0.20625000000000002 1.1375l0.0375 0.0375a1.25 1.25 0 0 1 0 1.76875 1.25 1.25 0 0 1 -1.76875 0l-0.0375 -0.0375a1.03125 1.03125 0 0 0 -1.1375 -0.20625000000000002 1.03125 1.03125 0 0 0 -0.625 0.94375V13.125a1.25 1.25 0 0 1 -1.25 1.25 1.25 1.25 0 0 1 -1.25 -1.25v-0.056249999999999994A1.03125 1.03125 0 0 0 5.625 12.125a1.03125 1.03125 0 0 0 -1.1375 0.20625000000000002l-0.0375 0.0375a1.25 1.25 0 0 1 -1.76875 0 1.25 1.25 0 0 1 0 -1.76875l0.0375 -0.0375a1.03125 1.03125 0 0 0 0.20625000000000002 -1.1375 1.03125 1.03125 0 0 0 -0.94375 -0.625H1.875a1.25 1.25 0 0 1 -1.25 -1.25 1.25 1.25 0 0 1 1.25 -1.25h0.056249999999999994A1.03125 1.03125 0 0 0 2.875 5.625a1.03125 1.03125 0 0 0 -0.20625000000000002 -1.1375l-0.0375 -0.0375a1.25 1.25 0 0 1 0 -1.76875 1.25 1.25 0 0 1 1.76875 0l0.0375 0.0375a1.03125 1.03125 0 0 0 1.1375 0.20625000000000002H5.625a1.03125 1.03125 0 0 0 0.625 -0.94375V1.875a1.25 1.25 0 0 1 1.25 -1.25 1.25 1.25 0 0 1 1.25 1.25v0.056249999999999994a1.03125 1.03125 0 0 0 0.625 0.94375 1.03125 1.03125 0 0 0 1.1375 -0.20625000000000002l0.0375 -0.0375a1.25 1.25 0 0 1 1.76875 0 1.25 1.25 0 0 1 0 1.76875l-0.0375 0.0375a1.03125 1.03125 0 0 0 -0.20625000000000002 1.1375V5.625a1.03125 1.03125 0 0 0 0.94375 0.625H13.125a1.25 1.25 0 0 1 1.25 1.25 1.25 1.25 0 0 1 -1.25 1.25h-0.056249999999999994a1.03125 1.03125 0 0 0 -0.94375 0.625z" stroke-width="1"></path></svg>